<?xml version="1.0" encoding="UTF-8"?>
<svg width="50px" height="37px" viewBox="0 0 50 37" version="1.1" xmlns="http://www.w3.org/2000/svg" xmlns:xlink="http://www.w3.org/1999/xlink">
    <!-- Generator: Sketch 48 (47235) - http://www.bohemiancoding.com/sketch -->
    <title>logo </title>
    <desc>Created with Sketch.</desc>
    <defs></defs>
    <g id="Page-1" stroke="none" stroke-width="1" fill="none" fill-rule="evenodd">
        <g id="logo-" fill="#FFFFFF">
            <path d="M28.030303,24.7727273 L28.030303,23.8636364 C28.030303,22.1900462 26.6735902,20.8333333 25,20.8333333 C23.3264098,20.8333333 21.969697,22.1900462 21.969697,23.8636364 L21.969697,33.7121212 C21.969697,35.1765126 20.7825732,36.3636364 19.3181818,36.3636364 C17.8537904,36.3636364 16.6666667,35.1765126 16.6666667,33.7121212 L16.6666667,2.65151515 C16.6666667,1.18712377 17.8537904,2.69004333e-16 19.3181818,1.61486985e-15 C20.7825732,1.34586552e-15 21.969697,1.18712377 21.969697,2.65151515 L21.969697,12.5 C21.969697,14.1735902 23.3264098,15.530303 25,15.530303 C26.6735902,15.530303 28.030303,14.1735902 28.030303,12.5 L28.030303,12.0833333 L28.030303,2.65151515 C28.030303,1.18712377 29.2174268,2.69004333e-16 30.6818182,1.61486985e-15 C32.1462096,1.34586552e-15 33.3333333,1.18712377 33.3333333,2.65151515 L33.3333333,33.7121212 C33.3333333,35.1765126 32.1462096,36.3636364 30.6818182,36.3636364 C29.2174268,36.3636364 28.030303,35.1765126 28.030303,33.7121212 L28.030303,24.7727273 Z" id="Combined-Shape"></path>
            <rect id="Rectangle-4" x="8.33333333" y="4.54545455" width="5.3030303" height="27.2727273" rx="2.65151515"></rect>
            <rect id="Rectangle-4-Copy-4" x="0" y="12.8787879" width="5.3030303" height="10.6060606" rx="2.65151515"></rect>
            <rect id="Rectangle-4" x="36.3636364" y="4.54545455" width="5.3030303" height="27.2727273" rx="2.65151515"></rect>
            <rect id="Rectangle-4-Copy-4" x="44.6969697" y="12.8787879" width="5.3030303" height="10.6060606" rx="2.65151515"></rect>
        </g>
    </g>
</svg>